<svg width="100%" height="100%" viewBox="0 0 35 25" fill="none" xmlns="http://www.w3.org/2000/svg" class="h-[20px] w-auto sm:h-[25px]"><path fill-rule="evenodd" clip-rule="evenodd" d="M17.5354 0C23.1812 0 28.7055 2.68217 34.0789 7.79138C34.0858 7.79792 34.0926 7.80454 34.0993 7.81125C34.6429 8.35435 34.9995 9.1493 34.9995 9.97461C34.9995 10.1281 34.9693 10.2746 34.9146 10.4085C34.833 11.0276 34.5667 11.6805 34.0046 12.1748C33.6798 12.4845 33.3544 12.7853 33.0285 13.0771C33.0091 13.1034 32.9884 13.129 32.9665 13.154C32.8784 13.2541 32.7768 13.3353 32.6668 13.3971C27.9278 17.5394 23.0821 19.783 18.1318 19.9555C12.9667 20.1354 7.8913 18.0538 2.92003 13.9146C2.7921 14.0318 2.66599 14.1515 2.54026 14.2772C2.52943 14.288 2.51839 14.2986 2.50713 14.309C2.2568 14.5399 2.20033 14.9915 2.51164 15.3284L2.51987 15.3362C7.62849 20.1935 12.6145 22.4946 17.479 22.4946C22.3434 22.4946 27.3294 20.1935 32.438 15.3362C32.8978 14.899 33.6253 14.917 34.0628 15.3764C34.5004 15.8358 34.4823 16.5627 34.0225 16.9998C28.6491 22.109 23.1248 24.7912 17.479 24.7912C11.8738 24.7912 6.38853 22.1476 1.05164 17.11C0.940438 17.0352 0.822585 16.9292 0.723853 16.7812C0.716711 16.7705 0.709782 16.7598 0.703063 16.749C-0.31147 15.516 -0.221182 13.7181 0.929655 12.6386C1.35046 12.2195 1.7679 11.862 2.15076 11.5341L2.16316 11.5235L2.1796 11.5097C7.18385 7.12445 12.2942 4.82867 17.5071 4.82867C22.4517 4.82867 27.3041 6.89426 32.0612 10.8493C32.1862 10.733 32.3112 10.6151 32.4364 10.4956C32.4513 10.4814 32.4666 10.4675 32.4823 10.4541C32.555 10.3919 32.6445 10.2458 32.6445 9.97454C32.6445 9.90064 32.6515 9.82836 32.6649 9.75834C32.6269 9.63955 32.5615 9.52554 32.4814 9.44271C27.3774 4.5938 22.3957 2.29658 17.5354 2.29658C12.6709 2.29658 7.68489 4.59769 2.57627 9.45506C2.11648 9.89224 1.38903 9.87422 0.951484 9.41481C0.513935 8.95539 0.531971 8.22856 0.991768 7.79138C6.36525 2.68217 11.8895 0 17.5354 0ZM30.3102 12.3836C25.9372 8.82295 21.6779 7.12525 17.5071 7.12525C13.3316 7.12525 9.0674 8.82675 4.68922 12.3956C9.25813 16.1169 13.704 17.8118 18.0517 17.6603C22.0528 17.5209 26.1355 15.8123 30.3102 12.3836ZM15.2752 12.395C15.2752 11.1632 16.2745 10.1647 17.5072 10.1647C18.74 10.1647 19.7393 11.1632 19.7393 12.395C19.7393 13.6267 18.74 14.6252 17.5072 14.6252C16.2745 14.6252 15.2752 13.6267 15.2752 12.395ZM17.5072 7.86816C15.0051 7.86816 12.9766 9.89488 12.9766 12.395C12.9766 14.895 15.0051 16.9217 17.5072 16.9217C20.0094 16.9217 22.0378 14.895 22.0378 12.395C22.0378 9.89488 20.0094 7.86816 17.5072 7.86816Z" fill="#B5179E"></path></svg>
